<mxfile host="app.diagrams.net" modified="2023-06-03T00:16:57.439Z" agent="Mozilla/5.0 (Windows NT 10.0; Win64; x64) AppleWebKit/537.36 (KHTML, like Gecko) Chrome/113.0.0.0 Safari/537.36" etag="OQRHFnAIpnTSvOHyhT4d" version="21.3.7" type="device">
  <diagram id="lqiZHl0MUsDmUwfxr7a_" name="PÃ¡gina-2">
    <mxGraphModel dx="996" dy="395" grid="1" gridSize="10" guides="1" tooltips="1" connect="1" arrows="1" fold="1" page="1" pageScale="1" pageWidth="827" pageHeight="1169" math="0" shadow="0">
      <root>
        <mxCell id="0" />
        <mxCell id="1" parent="0" />
        <mxCell id="k4_Jj9tKU9DFfMRUuF-1-1" value="Persona" style="swimlane;fontStyle=1;align=center;verticalAlign=top;childLayout=stackLayout;horizontal=1;startSize=26;horizontalStack=0;resizeParent=1;resizeParentMax=0;resizeLast=0;collapsible=1;marginBottom=0;whiteSpace=wrap;html=1;gradientColor=none;swimlaneFillColor=none;" vertex="1" parent="1">
          <mxGeometry x="870" y="590" width="220" height="360" as="geometry" />
        </mxCell>
        <mxCell id="k4_Jj9tKU9DFfMRUuF-1-2" value="- nombreApellido: String" style="text;strokeColor=none;fillColor=none;align=left;verticalAlign=top;spacingLeft=4;spacingRight=4;overflow=hidden;rotatable=0;points=[[0,0.5],[1,0.5]];portConstraint=eastwest;whiteSpace=wrap;html=1;" vertex="1" parent="k4_Jj9tKU9DFfMRUuF-1-1">
          <mxGeometry y="26" width="220" height="26" as="geometry" />
        </mxCell>
        <mxCell id="k4_Jj9tKU9DFfMRUuF-1-3" value="- dni: double" style="text;strokeColor=none;fillColor=none;align=left;verticalAlign=top;spacingLeft=4;spacingRight=4;overflow=hidden;rotatable=0;points=[[0,0.5],[1,0.5]];portConstraint=eastwest;whiteSpace=wrap;html=1;" vertex="1" parent="k4_Jj9tKU9DFfMRUuF-1-1">
          <mxGeometry y="52" width="220" height="26" as="geometry" />
        </mxCell>
        <mxCell id="k4_Jj9tKU9DFfMRUuF-1-4" value="- domicilio: String" style="text;strokeColor=none;fillColor=none;align=left;verticalAlign=top;spacingLeft=4;spacingRight=4;overflow=hidden;rotatable=0;points=[[0,0.5],[1,0.5]];portConstraint=eastwest;whiteSpace=wrap;html=1;" vertex="1" parent="k4_Jj9tKU9DFfMRUuF-1-1">
          <mxGeometry y="78" width="220" height="26" as="geometry" />
        </mxCell>
        <mxCell id="k4_Jj9tKU9DFfMRUuF-1-5" value="- fechaNacimiento: Date" style="text;strokeColor=none;fillColor=none;align=left;verticalAlign=top;spacingLeft=4;spacingRight=4;overflow=hidden;rotatable=0;points=[[0,0.5],[1,0.5]];portConstraint=eastwest;whiteSpace=wrap;html=1;" vertex="1" parent="k4_Jj9tKU9DFfMRUuF-1-1">
          <mxGeometry y="104" width="220" height="26" as="geometry" />
        </mxCell>
        <mxCell id="k4_Jj9tKU9DFfMRUuF-1-6" value="" style="line;strokeWidth=1;fillColor=none;align=left;verticalAlign=middle;spacingTop=-1;spacingLeft=3;spacingRight=3;rotatable=0;labelPosition=right;points=[];portConstraint=eastwest;strokeColor=inherit;" vertex="1" parent="k4_Jj9tKU9DFfMRUuF-1-1">
          <mxGeometry y="130" width="220" height="8" as="geometry" />
        </mxCell>
        <mxCell id="k4_Jj9tKU9DFfMRUuF-1-7" value="+ registroPersona()" style="text;strokeColor=none;fillColor=none;align=left;verticalAlign=top;spacingLeft=4;spacingRight=4;overflow=hidden;rotatable=0;points=[[0,0.5],[1,0.5]];portConstraint=eastwest;whiteSpace=wrap;html=1;" vertex="1" parent="k4_Jj9tKU9DFfMRUuF-1-1">
          <mxGeometry y="138" width="220" height="26" as="geometry" />
        </mxCell>
        <mxCell id="k4_Jj9tKU9DFfMRUuF-1-8" value="+ getINombreApellido()" style="text;strokeColor=none;fillColor=none;align=left;verticalAlign=top;spacingLeft=4;spacingRight=4;overflow=hidden;rotatable=0;points=[[0,0.5],[1,0.5]];portConstraint=eastwest;whiteSpace=wrap;html=1;" vertex="1" parent="k4_Jj9tKU9DFfMRUuF-1-1">
          <mxGeometry y="164" width="220" height="26" as="geometry" />
        </mxCell>
        <mxCell id="k4_Jj9tKU9DFfMRUuF-1-9" value="+ void setNombreApellido()" style="text;strokeColor=none;fillColor=none;align=left;verticalAlign=top;spacingLeft=4;spacingRight=4;overflow=hidden;rotatable=0;points=[[0,0.5],[1,0.5]];portConstraint=eastwest;whiteSpace=wrap;html=1;" vertex="1" parent="k4_Jj9tKU9DFfMRUuF-1-1">
          <mxGeometry y="190" width="220" height="26" as="geometry" />
        </mxCell>
        <mxCell id="k4_Jj9tKU9DFfMRUuF-1-10" value="+ double getDni()" style="text;strokeColor=none;fillColor=none;align=left;verticalAlign=top;spacingLeft=4;spacingRight=4;overflow=hidden;rotatable=0;points=[[0,0.5],[1,0.5]];portConstraint=eastwest;whiteSpace=wrap;html=1;" vertex="1" parent="k4_Jj9tKU9DFfMRUuF-1-1">
          <mxGeometry y="216" width="220" height="24" as="geometry" />
        </mxCell>
        <mxCell id="k4_Jj9tKU9DFfMRUuF-1-11" value="+ void setDni()" style="text;strokeColor=none;fillColor=none;align=left;verticalAlign=top;spacingLeft=4;spacingRight=4;overflow=hidden;rotatable=0;points=[[0,0.5],[1,0.5]];portConstraint=eastwest;whiteSpace=wrap;html=1;" vertex="1" parent="k4_Jj9tKU9DFfMRUuF-1-1">
          <mxGeometry y="240" width="220" height="24" as="geometry" />
        </mxCell>
        <mxCell id="k4_Jj9tKU9DFfMRUuF-1-12" value="+ Date getFecha()" style="text;strokeColor=none;fillColor=none;align=left;verticalAlign=top;spacingLeft=4;spacingRight=4;overflow=hidden;rotatable=0;points=[[0,0.5],[1,0.5]];portConstraint=eastwest;whiteSpace=wrap;html=1;" vertex="1" parent="k4_Jj9tKU9DFfMRUuF-1-1">
          <mxGeometry y="264" width="220" height="24" as="geometry" />
        </mxCell>
        <mxCell id="k4_Jj9tKU9DFfMRUuF-1-13" value="+ void setFecha()" style="text;strokeColor=none;fillColor=none;align=left;verticalAlign=top;spacingLeft=4;spacingRight=4;overflow=hidden;rotatable=0;points=[[0,0.5],[1,0.5]];portConstraint=eastwest;whiteSpace=wrap;html=1;" vertex="1" parent="k4_Jj9tKU9DFfMRUuF-1-1">
          <mxGeometry y="288" width="220" height="24" as="geometry" />
        </mxCell>
        <mxCell id="k4_Jj9tKU9DFfMRUuF-1-14" value="+ getDomicilio()" style="text;strokeColor=none;fillColor=none;align=left;verticalAlign=top;spacingLeft=4;spacingRight=4;overflow=hidden;rotatable=0;points=[[0,0.5],[1,0.5]];portConstraint=eastwest;whiteSpace=wrap;html=1;" vertex="1" parent="k4_Jj9tKU9DFfMRUuF-1-1">
          <mxGeometry y="312" width="220" height="24" as="geometry" />
        </mxCell>
        <mxCell id="k4_Jj9tKU9DFfMRUuF-1-15" value="+ void setDomicilio()" style="text;strokeColor=none;fillColor=none;align=left;verticalAlign=top;spacingLeft=4;spacingRight=4;overflow=hidden;rotatable=0;points=[[0,0.5],[1,0.5]];portConstraint=eastwest;whiteSpace=wrap;html=1;" vertex="1" parent="k4_Jj9tKU9DFfMRUuF-1-1">
          <mxGeometry y="336" width="220" height="24" as="geometry" />
        </mxCell>
        <mxCell id="k4_Jj9tKU9DFfMRUuF-1-16" value="Paciente" style="swimlane;fontStyle=1;align=center;verticalAlign=top;childLayout=stackLayout;horizontal=1;startSize=30;horizontalStack=0;resizeParent=1;resizeParentMax=0;resizeLast=0;collapsible=1;marginBottom=0;whiteSpace=wrap;html=1;" vertex="1" parent="1">
          <mxGeometry x="880" y="1034" width="160" height="108" as="geometry" />
        </mxCell>
        <mxCell id="k4_Jj9tKU9DFfMRUuF-1-17" value="- numHistoriaCinica: double" style="text;strokeColor=none;fillColor=none;align=left;verticalAlign=top;spacingLeft=4;spacingRight=4;overflow=hidden;rotatable=0;points=[[0,0.5],[1,0.5]];portConstraint=eastwest;whiteSpace=wrap;html=1;" vertex="1" parent="k4_Jj9tKU9DFfMRUuF-1-16">
          <mxGeometry y="30" width="160" height="40" as="geometry" />
        </mxCell>
        <mxCell id="k4_Jj9tKU9DFfMRUuF-1-18" value="" style="line;strokeWidth=1;fillColor=none;align=left;verticalAlign=middle;spacingTop=-1;spacingLeft=3;spacingRight=3;rotatable=0;labelPosition=right;points=[];portConstraint=eastwest;strokeColor=inherit;" vertex="1" parent="k4_Jj9tKU9DFfMRUuF-1-16">
          <mxGeometry y="70" width="160" height="8" as="geometry" />
        </mxCell>
        <mxCell id="k4_Jj9tKU9DFfMRUuF-1-19" value="+&amp;nbsp;" style="text;strokeColor=none;fillColor=none;align=left;verticalAlign=top;spacingLeft=4;spacingRight=4;overflow=hidden;rotatable=0;points=[[0,0.5],[1,0.5]];portConstraint=eastwest;whiteSpace=wrap;html=1;" vertex="1" parent="k4_Jj9tKU9DFfMRUuF-1-16">
          <mxGeometry y="78" width="160" height="30" as="geometry" />
        </mxCell>
        <mxCell id="k4_Jj9tKU9DFfMRUuF-1-20" style="edgeStyle=orthogonalEdgeStyle;rounded=0;orthogonalLoop=1;jettySize=auto;html=1;strokeWidth=2;endArrow=none;endFill=0;" edge="1" parent="1" source="k4_Jj9tKU9DFfMRUuF-1-21">
          <mxGeometry relative="1" as="geometry">
            <mxPoint x="1240" y="480" as="targetPoint" />
            <Array as="points">
              <mxPoint x="1240" y="510" />
            </Array>
          </mxGeometry>
        </mxCell>
        <mxCell id="k4_Jj9tKU9DFfMRUuF-1-21" value="Medico" style="swimlane;fontStyle=1;align=center;verticalAlign=top;childLayout=stackLayout;horizontal=1;startSize=20;horizontalStack=0;resizeParent=1;resizeParentMax=0;resizeLast=0;collapsible=1;marginBottom=0;whiteSpace=wrap;html=1;" vertex="1" parent="1">
          <mxGeometry x="1160" y="1050" width="160" height="210" as="geometry" />
        </mxCell>
        <mxCell id="k4_Jj9tKU9DFfMRUuF-1-22" value="- matriculaMedico: double" style="text;strokeColor=none;fillColor=none;align=left;verticalAlign=top;spacingLeft=4;spacingRight=4;overflow=hidden;rotatable=0;points=[[0,0.5],[1,0.5]];portConstraint=eastwest;whiteSpace=wrap;html=1;" vertex="1" parent="k4_Jj9tKU9DFfMRUuF-1-21">
          <mxGeometry y="20" width="160" height="26" as="geometry" />
        </mxCell>
        <mxCell id="k4_Jj9tKU9DFfMRUuF-1-23" value="- especialidad: String" style="text;strokeColor=none;fillColor=none;align=left;verticalAlign=top;spacingLeft=4;spacingRight=4;overflow=hidden;rotatable=0;points=[[0,0.5],[1,0.5]];portConstraint=eastwest;whiteSpace=wrap;html=1;" vertex="1" parent="k4_Jj9tKU9DFfMRUuF-1-21">
          <mxGeometry y="46" width="160" height="26" as="geometry" />
        </mxCell>
        <mxCell id="k4_Jj9tKU9DFfMRUuF-1-24" value="" style="line;strokeWidth=1;fillColor=none;align=left;verticalAlign=middle;spacingTop=-1;spacingLeft=3;spacingRight=3;rotatable=0;labelPosition=right;points=[];portConstraint=eastwest;strokeColor=inherit;" vertex="1" parent="k4_Jj9tKU9DFfMRUuF-1-21">
          <mxGeometry y="72" width="160" height="8" as="geometry" />
        </mxCell>
        <mxCell id="k4_Jj9tKU9DFfMRUuF-1-25" value="+ regisitroMedico()" style="text;strokeColor=none;fillColor=none;align=left;verticalAlign=top;spacingLeft=4;spacingRight=4;overflow=hidden;rotatable=0;points=[[0,0.5],[1,0.5]];portConstraint=eastwest;whiteSpace=wrap;html=1;" vertex="1" parent="k4_Jj9tKU9DFfMRUuF-1-21">
          <mxGeometry y="80" width="160" height="26" as="geometry" />
        </mxCell>
        <mxCell id="k4_Jj9tKU9DFfMRUuF-1-26" value="+ getNumMatricula()&amp;nbsp;" style="text;strokeColor=none;fillColor=none;align=left;verticalAlign=top;spacingLeft=4;spacingRight=4;overflow=hidden;rotatable=0;points=[[0,0.5],[1,0.5]];portConstraint=eastwest;whiteSpace=wrap;html=1;" vertex="1" parent="k4_Jj9tKU9DFfMRUuF-1-21">
          <mxGeometry y="106" width="160" height="26" as="geometry" />
        </mxCell>
        <mxCell id="k4_Jj9tKU9DFfMRUuF-1-27" value="+ void setNumMatricula()" style="text;strokeColor=none;fillColor=none;align=left;verticalAlign=top;spacingLeft=4;spacingRight=4;overflow=hidden;rotatable=0;points=[[0,0.5],[1,0.5]];portConstraint=eastwest;whiteSpace=wrap;html=1;" vertex="1" parent="k4_Jj9tKU9DFfMRUuF-1-21">
          <mxGeometry y="132" width="160" height="26" as="geometry" />
        </mxCell>
        <mxCell id="k4_Jj9tKU9DFfMRUuF-1-28" value="+ getEspecialidad()" style="text;strokeColor=none;fillColor=none;align=left;verticalAlign=top;spacingLeft=4;spacingRight=4;overflow=hidden;rotatable=0;points=[[0,0.5],[1,0.5]];portConstraint=eastwest;whiteSpace=wrap;html=1;" vertex="1" parent="k4_Jj9tKU9DFfMRUuF-1-21">
          <mxGeometry y="158" width="160" height="26" as="geometry" />
        </mxCell>
        <mxCell id="k4_Jj9tKU9DFfMRUuF-1-29" value="+ void setEspecialidad" style="text;strokeColor=none;fillColor=none;align=left;verticalAlign=top;spacingLeft=4;spacingRight=4;overflow=hidden;rotatable=0;points=[[0,0.5],[1,0.5]];portConstraint=eastwest;whiteSpace=wrap;html=1;" vertex="1" parent="k4_Jj9tKU9DFfMRUuF-1-21">
          <mxGeometry y="184" width="160" height="26" as="geometry" />
        </mxCell>
        <mxCell id="k4_Jj9tKU9DFfMRUuF-1-30" value="Administrativo" style="swimlane;fontStyle=1;align=center;verticalAlign=top;childLayout=stackLayout;horizontal=1;startSize=26;horizontalStack=0;resizeParent=1;resizeParentMax=0;resizeLast=0;collapsible=1;marginBottom=0;whiteSpace=wrap;html=1;" vertex="1" parent="1">
          <mxGeometry x="650" y="1064" width="160" height="86" as="geometry" />
        </mxCell>
        <mxCell id="k4_Jj9tKU9DFfMRUuF-1-31" value="- mailLaboral: String" style="text;strokeColor=none;fillColor=none;align=left;verticalAlign=top;spacingLeft=4;spacingRight=4;overflow=hidden;rotatable=0;points=[[0,0.5],[1,0.5]];portConstraint=eastwest;whiteSpace=wrap;html=1;" vertex="1" parent="k4_Jj9tKU9DFfMRUuF-1-30">
          <mxGeometry y="26" width="160" height="26" as="geometry" />
        </mxCell>
        <mxCell id="k4_Jj9tKU9DFfMRUuF-1-32" value="" style="line;strokeWidth=1;fillColor=none;align=left;verticalAlign=middle;spacingTop=-1;spacingLeft=3;spacingRight=3;rotatable=0;labelPosition=right;points=[];portConstraint=eastwest;strokeColor=inherit;" vertex="1" parent="k4_Jj9tKU9DFfMRUuF-1-30">
          <mxGeometry y="52" width="160" height="8" as="geometry" />
        </mxCell>
        <mxCell id="k4_Jj9tKU9DFfMRUuF-1-33" value="+" style="text;strokeColor=none;fillColor=none;align=left;verticalAlign=top;spacingLeft=4;spacingRight=4;overflow=hidden;rotatable=0;points=[[0,0.5],[1,0.5]];portConstraint=eastwest;whiteSpace=wrap;html=1;" vertex="1" parent="k4_Jj9tKU9DFfMRUuF-1-30">
          <mxGeometry y="60" width="160" height="26" as="geometry" />
        </mxCell>
        <mxCell id="k4_Jj9tKU9DFfMRUuF-1-34" value="Prestacion" style="swimlane;fontStyle=1;align=center;verticalAlign=top;childLayout=stackLayout;horizontal=1;startSize=26;horizontalStack=0;resizeParent=1;resizeParentMax=0;resizeLast=0;collapsible=1;marginBottom=0;whiteSpace=wrap;html=1;" vertex="1" parent="1">
          <mxGeometry x="1350" y="675" width="160" height="112" as="geometry" />
        </mxCell>
        <mxCell id="k4_Jj9tKU9DFfMRUuF-1-35" value="- nombreArea: String" style="text;strokeColor=none;fillColor=none;align=left;verticalAlign=top;spacingLeft=4;spacingRight=4;overflow=hidden;rotatable=0;points=[[0,0.5],[1,0.5]];portConstraint=eastwest;whiteSpace=wrap;html=1;" vertex="1" parent="k4_Jj9tKU9DFfMRUuF-1-34">
          <mxGeometry y="26" width="160" height="26" as="geometry" />
        </mxCell>
        <mxCell id="k4_Jj9tKU9DFfMRUuF-1-36" value="" style="line;strokeWidth=1;fillColor=none;align=left;verticalAlign=middle;spacingTop=-1;spacingLeft=3;spacingRight=3;rotatable=0;labelPosition=right;points=[];portConstraint=eastwest;strokeColor=inherit;" vertex="1" parent="k4_Jj9tKU9DFfMRUuF-1-34">
          <mxGeometry y="52" width="160" height="8" as="geometry" />
        </mxCell>
        <mxCell id="k4_Jj9tKU9DFfMRUuF-1-37" value="+ getNombreArea()" style="text;strokeColor=none;fillColor=none;align=left;verticalAlign=top;spacingLeft=4;spacingRight=4;overflow=hidden;rotatable=0;points=[[0,0.5],[1,0.5]];portConstraint=eastwest;whiteSpace=wrap;html=1;" vertex="1" parent="k4_Jj9tKU9DFfMRUuF-1-34">
          <mxGeometry y="60" width="160" height="26" as="geometry" />
        </mxCell>
        <mxCell id="k4_Jj9tKU9DFfMRUuF-1-38" value="+ void setNombreArea()" style="text;strokeColor=none;fillColor=none;align=left;verticalAlign=top;spacingLeft=4;spacingRight=4;overflow=hidden;rotatable=0;points=[[0,0.5],[1,0.5]];portConstraint=eastwest;whiteSpace=wrap;html=1;" vertex="1" parent="k4_Jj9tKU9DFfMRUuF-1-34">
          <mxGeometry y="86" width="160" height="26" as="geometry" />
        </mxCell>
        <mxCell id="k4_Jj9tKU9DFfMRUuF-1-39" value="ConsultorioTradicional" style="swimlane;fontStyle=1;align=center;verticalAlign=top;childLayout=stackLayout;horizontal=1;startSize=26;horizontalStack=0;resizeParent=1;resizeParentMax=0;resizeLast=0;collapsible=1;marginBottom=0;whiteSpace=wrap;html=1;" vertex="1" parent="1">
          <mxGeometry x="1390" y="1040" width="180" height="130" as="geometry" />
        </mxCell>
        <mxCell id="k4_Jj9tKU9DFfMRUuF-1-40" value="- numeroConsultorio: int" style="text;strokeColor=none;fillColor=none;align=left;verticalAlign=top;spacingLeft=4;spacingRight=4;overflow=hidden;rotatable=0;points=[[0,0.5],[1,0.5]];portConstraint=eastwest;whiteSpace=wrap;html=1;" vertex="1" parent="k4_Jj9tKU9DFfMRUuF-1-39">
          <mxGeometry y="26" width="180" height="26" as="geometry" />
        </mxCell>
        <mxCell id="k4_Jj9tKU9DFfMRUuF-1-41" value="" style="line;strokeWidth=1;fillColor=none;align=left;verticalAlign=middle;spacingTop=-1;spacingLeft=3;spacingRight=3;rotatable=0;labelPosition=right;points=[];portConstraint=eastwest;strokeColor=inherit;" vertex="1" parent="k4_Jj9tKU9DFfMRUuF-1-39">
          <mxGeometry y="52" width="180" height="8" as="geometry" />
        </mxCell>
        <mxCell id="k4_Jj9tKU9DFfMRUuF-1-42" value="+ getNumeroConsultorio()" style="text;strokeColor=none;fillColor=none;align=left;verticalAlign=top;spacingLeft=4;spacingRight=4;overflow=hidden;rotatable=0;points=[[0,0.5],[1,0.5]];portConstraint=eastwest;whiteSpace=wrap;html=1;" vertex="1" parent="k4_Jj9tKU9DFfMRUuF-1-39">
          <mxGeometry y="60" width="180" height="26" as="geometry" />
        </mxCell>
        <mxCell id="k4_Jj9tKU9DFfMRUuF-1-43" value="+ void&amp;nbsp; setNumeroConsultorio()" style="text;strokeColor=none;fillColor=none;align=left;verticalAlign=top;spacingLeft=4;spacingRight=4;overflow=hidden;rotatable=0;points=[[0,0.5],[1,0.5]];portConstraint=eastwest;whiteSpace=wrap;html=1;" vertex="1" parent="k4_Jj9tKU9DFfMRUuF-1-39">
          <mxGeometry y="86" width="180" height="44" as="geometry" />
        </mxCell>
        <mxCell id="k4_Jj9tKU9DFfMRUuF-1-44" value="AreaMedica" style="swimlane;fontStyle=1;align=center;verticalAlign=top;childLayout=stackLayout;horizontal=1;startSize=26;horizontalStack=0;resizeParent=1;resizeParentMax=0;resizeLast=0;collapsible=1;marginBottom=0;whiteSpace=wrap;html=1;" vertex="1" parent="1">
          <mxGeometry x="1240" y="340" width="170" height="138" as="geometry" />
        </mxCell>
        <mxCell id="k4_Jj9tKU9DFfMRUuF-1-45" value="- nombre: String" style="text;strokeColor=none;fillColor=none;align=left;verticalAlign=top;spacingLeft=4;spacingRight=4;overflow=hidden;rotatable=0;points=[[0,0.5],[1,0.5]];portConstraint=eastwest;whiteSpace=wrap;html=1;" vertex="1" parent="k4_Jj9tKU9DFfMRUuF-1-44">
          <mxGeometry y="26" width="170" height="26" as="geometry" />
        </mxCell>
        <mxCell id="k4_Jj9tKU9DFfMRUuF-1-46" value="- medicoCoordinador: String" style="text;strokeColor=none;fillColor=none;align=left;verticalAlign=top;spacingLeft=4;spacingRight=4;overflow=hidden;rotatable=0;points=[[0,0.5],[1,0.5]];portConstraint=eastwest;whiteSpace=wrap;html=1;" vertex="1" parent="k4_Jj9tKU9DFfMRUuF-1-44">
          <mxGeometry y="52" width="170" height="26" as="geometry" />
        </mxCell>
        <mxCell id="k4_Jj9tKU9DFfMRUuF-1-47" value="" style="line;strokeWidth=1;fillColor=none;align=left;verticalAlign=middle;spacingTop=-1;spacingLeft=3;spacingRight=3;rotatable=0;labelPosition=right;points=[];portConstraint=eastwest;strokeColor=inherit;" vertex="1" parent="k4_Jj9tKU9DFfMRUuF-1-44">
          <mxGeometry y="78" width="170" height="8" as="geometry" />
        </mxCell>
        <mxCell id="k4_Jj9tKU9DFfMRUuF-1-48" value="+ getNombre()" style="text;strokeColor=none;fillColor=none;align=left;verticalAlign=top;spacingLeft=4;spacingRight=4;overflow=hidden;rotatable=0;points=[[0,0.5],[1,0.5]];portConstraint=eastwest;whiteSpace=wrap;html=1;" vertex="1" parent="k4_Jj9tKU9DFfMRUuF-1-44">
          <mxGeometry y="86" width="170" height="26" as="geometry" />
        </mxCell>
        <mxCell id="k4_Jj9tKU9DFfMRUuF-1-49" value="+ void setNombre()" style="text;strokeColor=none;fillColor=none;align=left;verticalAlign=top;spacingLeft=4;spacingRight=4;overflow=hidden;rotatable=0;points=[[0,0.5],[1,0.5]];portConstraint=eastwest;whiteSpace=wrap;html=1;" vertex="1" parent="k4_Jj9tKU9DFfMRUuF-1-44">
          <mxGeometry y="112" width="170" height="26" as="geometry" />
        </mxCell>
        <mxCell id="k4_Jj9tKU9DFfMRUuF-1-50" value="CoberturaMedica" style="swimlane;fontStyle=1;align=center;verticalAlign=top;childLayout=stackLayout;horizontal=1;startSize=26;horizontalStack=0;resizeParent=1;resizeParentMax=0;resizeLast=0;collapsible=1;marginBottom=0;whiteSpace=wrap;html=1;" vertex="1" parent="1">
          <mxGeometry x="670" y="1290" width="160" height="346" as="geometry" />
        </mxCell>
        <mxCell id="k4_Jj9tKU9DFfMRUuF-1-51" value="- dni: double" style="text;strokeColor=none;fillColor=none;align=left;verticalAlign=top;spacingLeft=4;spacingRight=4;overflow=hidden;rotatable=0;points=[[0,0.5],[1,0.5]];portConstraint=eastwest;whiteSpace=wrap;html=1;" vertex="1" parent="k4_Jj9tKU9DFfMRUuF-1-50">
          <mxGeometry y="26" width="160" height="26" as="geometry" />
        </mxCell>
        <mxCell id="k4_Jj9tKU9DFfMRUuF-1-52" value="- nombre: String" style="text;strokeColor=none;fillColor=none;align=left;verticalAlign=top;spacingLeft=4;spacingRight=4;overflow=hidden;rotatable=0;points=[[0,0.5],[1,0.5]];portConstraint=eastwest;whiteSpace=wrap;html=1;" vertex="1" parent="k4_Jj9tKU9DFfMRUuF-1-50">
          <mxGeometry y="52" width="160" height="26" as="geometry" />
        </mxCell>
        <mxCell id="k4_Jj9tKU9DFfMRUuF-1-53" value="- plan: String" style="text;strokeColor=none;fillColor=none;align=left;verticalAlign=top;spacingLeft=4;spacingRight=4;overflow=hidden;rotatable=0;points=[[0,0.5],[1,0.5]];portConstraint=eastwest;whiteSpace=wrap;html=1;" vertex="1" parent="k4_Jj9tKU9DFfMRUuF-1-50">
          <mxGeometry y="78" width="160" height="26" as="geometry" />
        </mxCell>
        <mxCell id="k4_Jj9tKU9DFfMRUuF-1-54" value="- numAfiliado: double" style="text;strokeColor=none;fillColor=none;align=left;verticalAlign=top;spacingLeft=4;spacingRight=4;overflow=hidden;rotatable=0;points=[[0,0.5],[1,0.5]];portConstraint=eastwest;whiteSpace=wrap;html=1;" vertex="1" parent="k4_Jj9tKU9DFfMRUuF-1-50">
          <mxGeometry y="104" width="160" height="26" as="geometry" />
        </mxCell>
        <mxCell id="k4_Jj9tKU9DFfMRUuF-1-55" value="" style="line;strokeWidth=1;fillColor=none;align=left;verticalAlign=middle;spacingTop=-1;spacingLeft=3;spacingRight=3;rotatable=0;labelPosition=right;points=[];portConstraint=eastwest;strokeColor=inherit;" vertex="1" parent="k4_Jj9tKU9DFfMRUuF-1-50">
          <mxGeometry y="130" width="160" height="8" as="geometry" />
        </mxCell>
        <mxCell id="k4_Jj9tKU9DFfMRUuF-1-56" value="+ getCodigoPaciente()" style="text;strokeColor=none;fillColor=none;align=left;verticalAlign=top;spacingLeft=4;spacingRight=4;overflow=hidden;rotatable=0;points=[[0,0.5],[1,0.5]];portConstraint=eastwest;whiteSpace=wrap;html=1;" vertex="1" parent="k4_Jj9tKU9DFfMRUuF-1-50">
          <mxGeometry y="138" width="160" height="26" as="geometry" />
        </mxCell>
        <mxCell id="k4_Jj9tKU9DFfMRUuF-1-57" value="+ void setCodigoPaciente()" style="text;strokeColor=none;fillColor=none;align=left;verticalAlign=top;spacingLeft=4;spacingRight=4;overflow=hidden;rotatable=0;points=[[0,0.5],[1,0.5]];portConstraint=eastwest;whiteSpace=wrap;html=1;" vertex="1" parent="k4_Jj9tKU9DFfMRUuF-1-50">
          <mxGeometry y="164" width="160" height="26" as="geometry" />
        </mxCell>
        <mxCell id="k4_Jj9tKU9DFfMRUuF-1-58" value="+ getNombre()" style="text;strokeColor=none;fillColor=none;align=left;verticalAlign=top;spacingLeft=4;spacingRight=4;overflow=hidden;rotatable=0;points=[[0,0.5],[1,0.5]];portConstraint=eastwest;whiteSpace=wrap;html=1;" vertex="1" parent="k4_Jj9tKU9DFfMRUuF-1-50">
          <mxGeometry y="190" width="160" height="26" as="geometry" />
        </mxCell>
        <mxCell id="k4_Jj9tKU9DFfMRUuF-1-59" value="+ void setNombre()" style="text;strokeColor=none;fillColor=none;align=left;verticalAlign=top;spacingLeft=4;spacingRight=4;overflow=hidden;rotatable=0;points=[[0,0.5],[1,0.5]];portConstraint=eastwest;whiteSpace=wrap;html=1;" vertex="1" parent="k4_Jj9tKU9DFfMRUuF-1-50">
          <mxGeometry y="216" width="160" height="26" as="geometry" />
        </mxCell>
        <mxCell id="k4_Jj9tKU9DFfMRUuF-1-60" value="+ getPlan()" style="text;strokeColor=none;fillColor=none;align=left;verticalAlign=top;spacingLeft=4;spacingRight=4;overflow=hidden;rotatable=0;points=[[0,0.5],[1,0.5]];portConstraint=eastwest;whiteSpace=wrap;html=1;" vertex="1" parent="k4_Jj9tKU9DFfMRUuF-1-50">
          <mxGeometry y="242" width="160" height="26" as="geometry" />
        </mxCell>
        <mxCell id="k4_Jj9tKU9DFfMRUuF-1-61" value="+ void setPlan()" style="text;strokeColor=none;fillColor=none;align=left;verticalAlign=top;spacingLeft=4;spacingRight=4;overflow=hidden;rotatable=0;points=[[0,0.5],[1,0.5]];portConstraint=eastwest;whiteSpace=wrap;html=1;" vertex="1" parent="k4_Jj9tKU9DFfMRUuF-1-50">
          <mxGeometry y="268" width="160" height="26" as="geometry" />
        </mxCell>
        <mxCell id="k4_Jj9tKU9DFfMRUuF-1-62" value="+ getNumAfiliado()" style="text;strokeColor=none;fillColor=none;align=left;verticalAlign=top;spacingLeft=4;spacingRight=4;overflow=hidden;rotatable=0;points=[[0,0.5],[1,0.5]];portConstraint=eastwest;whiteSpace=wrap;html=1;" vertex="1" parent="k4_Jj9tKU9DFfMRUuF-1-50">
          <mxGeometry y="294" width="160" height="26" as="geometry" />
        </mxCell>
        <mxCell id="k4_Jj9tKU9DFfMRUuF-1-63" value="+ void setNumAfiliado()" style="text;strokeColor=none;fillColor=none;align=left;verticalAlign=top;spacingLeft=4;spacingRight=4;overflow=hidden;rotatable=0;points=[[0,0.5],[1,0.5]];portConstraint=eastwest;whiteSpace=wrap;html=1;" vertex="1" parent="k4_Jj9tKU9DFfMRUuF-1-50">
          <mxGeometry y="320" width="160" height="26" as="geometry" />
        </mxCell>
        <mxCell id="k4_Jj9tKU9DFfMRUuF-1-64" value="Turno" style="swimlane;fontStyle=1;align=center;verticalAlign=top;childLayout=stackLayout;horizontal=1;startSize=26;horizontalStack=0;resizeParent=1;resizeParentMax=0;resizeLast=0;collapsible=1;marginBottom=0;whiteSpace=wrap;html=1;" vertex="1" parent="1">
          <mxGeometry x="490" y="1190" width="160" height="524" as="geometry" />
        </mxCell>
        <mxCell id="k4_Jj9tKU9DFfMRUuF-1-65" value="- consultorio: int" style="text;strokeColor=none;fillColor=none;align=left;verticalAlign=top;spacingLeft=4;spacingRight=4;overflow=hidden;rotatable=0;points=[[0,0.5],[1,0.5]];portConstraint=eastwest;whiteSpace=wrap;html=1;" vertex="1" parent="k4_Jj9tKU9DFfMRUuF-1-64">
          <mxGeometry y="26" width="160" height="26" as="geometry" />
        </mxCell>
        <mxCell id="k4_Jj9tKU9DFfMRUuF-1-66" value="- medico: String" style="text;strokeColor=none;fillColor=none;align=left;verticalAlign=top;spacingLeft=4;spacingRight=4;overflow=hidden;rotatable=0;points=[[0,0.5],[1,0.5]];portConstraint=eastwest;whiteSpace=wrap;html=1;" vertex="1" parent="k4_Jj9tKU9DFfMRUuF-1-64">
          <mxGeometry y="52" width="160" height="26" as="geometry" />
        </mxCell>
        <mxCell id="k4_Jj9tKU9DFfMRUuF-1-67" value="- fecha: Date" style="text;strokeColor=none;fillColor=none;align=left;verticalAlign=top;spacingLeft=4;spacingRight=4;overflow=hidden;rotatable=0;points=[[0,0.5],[1,0.5]];portConstraint=eastwest;whiteSpace=wrap;html=1;" vertex="1" parent="k4_Jj9tKU9DFfMRUuF-1-64">
          <mxGeometry y="78" width="160" height="26" as="geometry" />
        </mxCell>
        <mxCell id="k4_Jj9tKU9DFfMRUuF-1-68" value="- horaInicio: Date" style="text;strokeColor=none;fillColor=none;align=left;verticalAlign=top;spacingLeft=4;spacingRight=4;overflow=hidden;rotatable=0;points=[[0,0.5],[1,0.5]];portConstraint=eastwest;whiteSpace=wrap;html=1;" vertex="1" parent="k4_Jj9tKU9DFfMRUuF-1-64">
          <mxGeometry y="104" width="160" height="22" as="geometry" />
        </mxCell>
        <mxCell id="k4_Jj9tKU9DFfMRUuF-1-69" value="- horaFin: Date" style="text;strokeColor=none;fillColor=none;align=left;verticalAlign=top;spacingLeft=4;spacingRight=4;overflow=hidden;rotatable=0;points=[[0,0.5],[1,0.5]];portConstraint=eastwest;whiteSpace=wrap;html=1;" vertex="1" parent="k4_Jj9tKU9DFfMRUuF-1-64">
          <mxGeometry y="126" width="160" height="26" as="geometry" />
        </mxCell>
        <mxCell id="k4_Jj9tKU9DFfMRUuF-1-70" value="" style="line;strokeWidth=1;fillColor=none;align=left;verticalAlign=middle;spacingTop=-1;spacingLeft=3;spacingRight=3;rotatable=0;labelPosition=right;points=[];portConstraint=eastwest;strokeColor=inherit;" vertex="1" parent="k4_Jj9tKU9DFfMRUuF-1-64">
          <mxGeometry y="152" width="160" height="8" as="geometry" />
        </mxCell>
        <mxCell id="k4_Jj9tKU9DFfMRUuF-1-71" value="+ recepcionTurno()&lt;br&gt;" style="text;strokeColor=none;fillColor=none;align=left;verticalAlign=top;spacingLeft=4;spacingRight=4;overflow=hidden;rotatable=0;points=[[0,0.5],[1,0.5]];portConstraint=eastwest;whiteSpace=wrap;html=1;" vertex="1" parent="k4_Jj9tKU9DFfMRUuF-1-64">
          <mxGeometry y="160" width="160" height="26" as="geometry" />
        </mxCell>
        <mxCell id="k4_Jj9tKU9DFfMRUuF-1-72" value="+ getCodigoPaciente()" style="text;strokeColor=none;fillColor=none;align=left;verticalAlign=top;spacingLeft=4;spacingRight=4;overflow=hidden;rotatable=0;points=[[0,0.5],[1,0.5]];portConstraint=eastwest;whiteSpace=wrap;html=1;" vertex="1" parent="k4_Jj9tKU9DFfMRUuF-1-64">
          <mxGeometry y="186" width="160" height="26" as="geometry" />
        </mxCell>
        <mxCell id="k4_Jj9tKU9DFfMRUuF-1-73" value="+ void setCodigoPaciente()" style="text;strokeColor=none;fillColor=none;align=left;verticalAlign=top;spacingLeft=4;spacingRight=4;overflow=hidden;rotatable=0;points=[[0,0.5],[1,0.5]];portConstraint=eastwest;whiteSpace=wrap;html=1;" vertex="1" parent="k4_Jj9tKU9DFfMRUuF-1-64">
          <mxGeometry y="212" width="160" height="26" as="geometry" />
        </mxCell>
        <mxCell id="k4_Jj9tKU9DFfMRUuF-1-74" value="+ getConsultorio()" style="text;strokeColor=none;fillColor=none;align=left;verticalAlign=top;spacingLeft=4;spacingRight=4;overflow=hidden;rotatable=0;points=[[0,0.5],[1,0.5]];portConstraint=eastwest;whiteSpace=wrap;html=1;" vertex="1" parent="k4_Jj9tKU9DFfMRUuF-1-64">
          <mxGeometry y="238" width="160" height="26" as="geometry" />
        </mxCell>
        <mxCell id="k4_Jj9tKU9DFfMRUuF-1-75" value="+ void setConsultorio()" style="text;strokeColor=none;fillColor=none;align=left;verticalAlign=top;spacingLeft=4;spacingRight=4;overflow=hidden;rotatable=0;points=[[0,0.5],[1,0.5]];portConstraint=eastwest;whiteSpace=wrap;html=1;" vertex="1" parent="k4_Jj9tKU9DFfMRUuF-1-64">
          <mxGeometry y="264" width="160" height="26" as="geometry" />
        </mxCell>
        <mxCell id="k4_Jj9tKU9DFfMRUuF-1-76" value="+ getMedico()" style="text;strokeColor=none;fillColor=none;align=left;verticalAlign=top;spacingLeft=4;spacingRight=4;overflow=hidden;rotatable=0;points=[[0,0.5],[1,0.5]];portConstraint=eastwest;whiteSpace=wrap;html=1;" vertex="1" parent="k4_Jj9tKU9DFfMRUuF-1-64">
          <mxGeometry y="290" width="160" height="26" as="geometry" />
        </mxCell>
        <mxCell id="k4_Jj9tKU9DFfMRUuF-1-77" value="+ void setMedico()" style="text;strokeColor=none;fillColor=none;align=left;verticalAlign=top;spacingLeft=4;spacingRight=4;overflow=hidden;rotatable=0;points=[[0,0.5],[1,0.5]];portConstraint=eastwest;whiteSpace=wrap;html=1;" vertex="1" parent="k4_Jj9tKU9DFfMRUuF-1-64">
          <mxGeometry y="316" width="160" height="26" as="geometry" />
        </mxCell>
        <mxCell id="k4_Jj9tKU9DFfMRUuF-1-78" value="+ getFecha()" style="text;strokeColor=none;fillColor=none;align=left;verticalAlign=top;spacingLeft=4;spacingRight=4;overflow=hidden;rotatable=0;points=[[0,0.5],[1,0.5]];portConstraint=eastwest;whiteSpace=wrap;html=1;" vertex="1" parent="k4_Jj9tKU9DFfMRUuF-1-64">
          <mxGeometry y="342" width="160" height="26" as="geometry" />
        </mxCell>
        <mxCell id="k4_Jj9tKU9DFfMRUuF-1-79" value="+ void setFecha()" style="text;strokeColor=none;fillColor=none;align=left;verticalAlign=top;spacingLeft=4;spacingRight=4;overflow=hidden;rotatable=0;points=[[0,0.5],[1,0.5]];portConstraint=eastwest;whiteSpace=wrap;html=1;" vertex="1" parent="k4_Jj9tKU9DFfMRUuF-1-64">
          <mxGeometry y="368" width="160" height="26" as="geometry" />
        </mxCell>
        <mxCell id="k4_Jj9tKU9DFfMRUuF-1-80" value="+ void setFecha()" style="text;strokeColor=none;fillColor=none;align=left;verticalAlign=top;spacingLeft=4;spacingRight=4;overflow=hidden;rotatable=0;points=[[0,0.5],[1,0.5]];portConstraint=eastwest;whiteSpace=wrap;html=1;" vertex="1" parent="k4_Jj9tKU9DFfMRUuF-1-64">
          <mxGeometry y="394" width="160" height="26" as="geometry" />
        </mxCell>
        <mxCell id="k4_Jj9tKU9DFfMRUuF-1-81" value="+&amp;nbsp; getHoraIncio()" style="text;strokeColor=none;fillColor=none;align=left;verticalAlign=top;spacingLeft=4;spacingRight=4;overflow=hidden;rotatable=0;points=[[0,0.5],[1,0.5]];portConstraint=eastwest;whiteSpace=wrap;html=1;" vertex="1" parent="k4_Jj9tKU9DFfMRUuF-1-64">
          <mxGeometry y="420" width="160" height="26" as="geometry" />
        </mxCell>
        <mxCell id="k4_Jj9tKU9DFfMRUuF-1-82" value="+&amp;nbsp; void setHoraIncio()" style="text;strokeColor=none;fillColor=none;align=left;verticalAlign=top;spacingLeft=4;spacingRight=4;overflow=hidden;rotatable=0;points=[[0,0.5],[1,0.5]];portConstraint=eastwest;whiteSpace=wrap;html=1;" vertex="1" parent="k4_Jj9tKU9DFfMRUuF-1-64">
          <mxGeometry y="446" width="160" height="26" as="geometry" />
        </mxCell>
        <mxCell id="k4_Jj9tKU9DFfMRUuF-1-83" value="+&amp;nbsp; getHoraFin()" style="text;strokeColor=none;fillColor=none;align=left;verticalAlign=top;spacingLeft=4;spacingRight=4;overflow=hidden;rotatable=0;points=[[0,0.5],[1,0.5]];portConstraint=eastwest;whiteSpace=wrap;html=1;" vertex="1" parent="k4_Jj9tKU9DFfMRUuF-1-64">
          <mxGeometry y="472" width="160" height="26" as="geometry" />
        </mxCell>
        <mxCell id="k4_Jj9tKU9DFfMRUuF-1-84" value="+&amp;nbsp; void setHoraFin()" style="text;strokeColor=none;fillColor=none;align=left;verticalAlign=top;spacingLeft=4;spacingRight=4;overflow=hidden;rotatable=0;points=[[0,0.5],[1,0.5]];portConstraint=eastwest;whiteSpace=wrap;html=1;" vertex="1" parent="k4_Jj9tKU9DFfMRUuF-1-64">
          <mxGeometry y="498" width="160" height="26" as="geometry" />
        </mxCell>
        <mxCell id="k4_Jj9tKU9DFfMRUuF-1-85" value="HistorialTurnos" style="swimlane;fontStyle=1;align=center;verticalAlign=top;childLayout=stackLayout;horizontal=1;startSize=20;horizontalStack=0;resizeParent=1;resizeParentMax=0;resizeLast=0;collapsible=1;marginBottom=0;whiteSpace=wrap;html=1;" vertex="1" parent="1">
          <mxGeometry x="700" y="1740" width="160" height="80" as="geometry" />
        </mxCell>
        <mxCell id="k4_Jj9tKU9DFfMRUuF-1-86" value="- historiaClinica: double" style="text;strokeColor=none;fillColor=none;align=left;verticalAlign=top;spacingLeft=4;spacingRight=4;overflow=hidden;rotatable=0;points=[[0,0.5],[1,0.5]];portConstraint=eastwest;whiteSpace=wrap;html=1;" vertex="1" parent="k4_Jj9tKU9DFfMRUuF-1-85">
          <mxGeometry y="20" width="160" height="26" as="geometry" />
        </mxCell>
        <mxCell id="k4_Jj9tKU9DFfMRUuF-1-87" value="" style="line;strokeWidth=1;fillColor=none;align=left;verticalAlign=middle;spacingTop=-1;spacingLeft=3;spacingRight=3;rotatable=0;labelPosition=right;points=[];portConstraint=eastwest;strokeColor=inherit;" vertex="1" parent="k4_Jj9tKU9DFfMRUuF-1-85">
          <mxGeometry y="46" width="160" height="8" as="geometry" />
        </mxCell>
        <mxCell id="k4_Jj9tKU9DFfMRUuF-1-88" value="+" style="text;strokeColor=none;fillColor=none;align=left;verticalAlign=top;spacingLeft=4;spacingRight=4;overflow=hidden;rotatable=0;points=[[0,0.5],[1,0.5]];portConstraint=eastwest;whiteSpace=wrap;html=1;" vertex="1" parent="k4_Jj9tKU9DFfMRUuF-1-85">
          <mxGeometry y="54" width="160" height="26" as="geometry" />
        </mxCell>
        <mxCell id="k4_Jj9tKU9DFfMRUuF-1-89" value="Clinica" style="swimlane;fontStyle=1;align=center;verticalAlign=top;childLayout=stackLayout;horizontal=1;startSize=26;horizontalStack=0;resizeParent=1;resizeParentMax=0;resizeLast=0;collapsible=1;marginBottom=0;whiteSpace=wrap;html=1;" vertex="1" parent="1">
          <mxGeometry x="900" y="230" width="160" height="268" as="geometry" />
        </mxCell>
        <mxCell id="k4_Jj9tKU9DFfMRUuF-1-90" value="- nombre: String" style="text;strokeColor=none;fillColor=none;align=left;verticalAlign=top;spacingLeft=4;spacingRight=4;overflow=hidden;rotatable=0;points=[[0,0.5],[1,0.5]];portConstraint=eastwest;whiteSpace=wrap;html=1;" vertex="1" parent="k4_Jj9tKU9DFfMRUuF-1-89">
          <mxGeometry y="26" width="160" height="26" as="geometry" />
        </mxCell>
        <mxCell id="k4_Jj9tKU9DFfMRUuF-1-91" value="- direccion: String" style="text;strokeColor=none;fillColor=none;align=left;verticalAlign=top;spacingLeft=4;spacingRight=4;overflow=hidden;rotatable=0;points=[[0,0.5],[1,0.5]];portConstraint=eastwest;whiteSpace=wrap;html=1;" vertex="1" parent="k4_Jj9tKU9DFfMRUuF-1-89">
          <mxGeometry y="52" width="160" height="26" as="geometry" />
        </mxCell>
        <mxCell id="k4_Jj9tKU9DFfMRUuF-1-92" value="- telÃ©fono: double" style="text;strokeColor=none;fillColor=none;align=left;verticalAlign=top;spacingLeft=4;spacingRight=4;overflow=hidden;rotatable=0;points=[[0,0.5],[1,0.5]];portConstraint=eastwest;whiteSpace=wrap;html=1;" vertex="1" parent="k4_Jj9tKU9DFfMRUuF-1-89">
          <mxGeometry y="78" width="160" height="26" as="geometry" />
        </mxCell>
        <mxCell id="k4_Jj9tKU9DFfMRUuF-1-93" value="" style="line;strokeWidth=1;fillColor=none;align=left;verticalAlign=middle;spacingTop=-1;spacingLeft=3;spacingRight=3;rotatable=0;labelPosition=right;points=[];portConstraint=eastwest;strokeColor=inherit;" vertex="1" parent="k4_Jj9tKU9DFfMRUuF-1-89">
          <mxGeometry y="104" width="160" height="8" as="geometry" />
        </mxCell>
        <mxCell id="k4_Jj9tKU9DFfMRUuF-1-94" value="+ getNombre()" style="text;strokeColor=none;fillColor=none;align=left;verticalAlign=top;spacingLeft=4;spacingRight=4;overflow=hidden;rotatable=0;points=[[0,0.5],[1,0.5]];portConstraint=eastwest;whiteSpace=wrap;html=1;" vertex="1" parent="k4_Jj9tKU9DFfMRUuF-1-89">
          <mxGeometry y="112" width="160" height="26" as="geometry" />
        </mxCell>
        <mxCell id="k4_Jj9tKU9DFfMRUuF-1-95" value="+ void setNombre()" style="text;strokeColor=none;fillColor=none;align=left;verticalAlign=top;spacingLeft=4;spacingRight=4;overflow=hidden;rotatable=0;points=[[0,0.5],[1,0.5]];portConstraint=eastwest;whiteSpace=wrap;html=1;" vertex="1" parent="k4_Jj9tKU9DFfMRUuF-1-89">
          <mxGeometry y="138" width="160" height="26" as="geometry" />
        </mxCell>
        <mxCell id="k4_Jj9tKU9DFfMRUuF-1-96" value="+ getDireccion()" style="text;strokeColor=none;fillColor=none;align=left;verticalAlign=top;spacingLeft=4;spacingRight=4;overflow=hidden;rotatable=0;points=[[0,0.5],[1,0.5]];portConstraint=eastwest;whiteSpace=wrap;html=1;" vertex="1" parent="k4_Jj9tKU9DFfMRUuF-1-89">
          <mxGeometry y="164" width="160" height="26" as="geometry" />
        </mxCell>
        <mxCell id="k4_Jj9tKU9DFfMRUuF-1-97" value="+ void setDireccion()" style="text;strokeColor=none;fillColor=none;align=left;verticalAlign=top;spacingLeft=4;spacingRight=4;overflow=hidden;rotatable=0;points=[[0,0.5],[1,0.5]];portConstraint=eastwest;whiteSpace=wrap;html=1;" vertex="1" parent="k4_Jj9tKU9DFfMRUuF-1-89">
          <mxGeometry y="190" width="160" height="26" as="geometry" />
        </mxCell>
        <mxCell id="k4_Jj9tKU9DFfMRUuF-1-98" value="+ getTelefono()" style="text;strokeColor=none;fillColor=none;align=left;verticalAlign=top;spacingLeft=4;spacingRight=4;overflow=hidden;rotatable=0;points=[[0,0.5],[1,0.5]];portConstraint=eastwest;whiteSpace=wrap;html=1;" vertex="1" parent="k4_Jj9tKU9DFfMRUuF-1-89">
          <mxGeometry y="216" width="160" height="26" as="geometry" />
        </mxCell>
        <mxCell id="k4_Jj9tKU9DFfMRUuF-1-99" value="+ void setTelefono()" style="text;strokeColor=none;fillColor=none;align=left;verticalAlign=top;spacingLeft=4;spacingRight=4;overflow=hidden;rotatable=0;points=[[0,0.5],[1,0.5]];portConstraint=eastwest;whiteSpace=wrap;html=1;" vertex="1" parent="k4_Jj9tKU9DFfMRUuF-1-89">
          <mxGeometry y="242" width="160" height="26" as="geometry" />
        </mxCell>
        <mxCell id="k4_Jj9tKU9DFfMRUuF-1-100" value="RevisionMedica" style="swimlane;fontStyle=1;align=center;verticalAlign=top;childLayout=stackLayout;horizontal=1;startSize=26;horizontalStack=0;resizeParent=1;resizeParentMax=0;resizeLast=0;collapsible=1;marginBottom=0;whiteSpace=wrap;html=1;" vertex="1" parent="1">
          <mxGeometry x="1070" y="1370" width="180" height="152" as="geometry" />
        </mxCell>
        <mxCell id="k4_Jj9tKU9DFfMRUuF-1-101" value="- numHistoriaClinica: double" style="text;strokeColor=none;fillColor=none;align=left;verticalAlign=top;spacingLeft=4;spacingRight=4;overflow=hidden;rotatable=0;points=[[0,0.5],[1,0.5]];portConstraint=eastwest;whiteSpace=wrap;html=1;" vertex="1" parent="k4_Jj9tKU9DFfMRUuF-1-100">
          <mxGeometry y="26" width="180" height="20" as="geometry" />
        </mxCell>
        <mxCell id="k4_Jj9tKU9DFfMRUuF-1-102" value="- fecha: Date" style="text;strokeColor=none;fillColor=none;align=left;verticalAlign=top;spacingLeft=4;spacingRight=4;overflow=hidden;rotatable=0;points=[[0,0.5],[1,0.5]];portConstraint=eastwest;whiteSpace=wrap;html=1;" vertex="1" parent="k4_Jj9tKU9DFfMRUuF-1-100">
          <mxGeometry y="46" width="180" height="24" as="geometry" />
        </mxCell>
        <mxCell id="k4_Jj9tKU9DFfMRUuF-1-103" value="- medico: String" style="text;strokeColor=none;fillColor=none;align=left;verticalAlign=top;spacingLeft=4;spacingRight=4;overflow=hidden;rotatable=0;points=[[0,0.5],[1,0.5]];portConstraint=eastwest;whiteSpace=wrap;html=1;" vertex="1" parent="k4_Jj9tKU9DFfMRUuF-1-100">
          <mxGeometry y="70" width="180" height="24" as="geometry" />
        </mxCell>
        <mxCell id="k4_Jj9tKU9DFfMRUuF-1-104" value="- matriculaMedico: String" style="text;strokeColor=none;fillColor=none;align=left;verticalAlign=top;spacingLeft=4;spacingRight=4;overflow=hidden;rotatable=0;points=[[0,0.5],[1,0.5]];portConstraint=eastwest;whiteSpace=wrap;html=1;" vertex="1" parent="k4_Jj9tKU9DFfMRUuF-1-100">
          <mxGeometry y="94" width="180" height="24" as="geometry" />
        </mxCell>
        <mxCell id="k4_Jj9tKU9DFfMRUuF-1-105" value="" style="line;strokeWidth=1;fillColor=none;align=left;verticalAlign=middle;spacingTop=-1;spacingLeft=3;spacingRight=3;rotatable=0;labelPosition=right;points=[];portConstraint=eastwest;strokeColor=inherit;" vertex="1" parent="k4_Jj9tKU9DFfMRUuF-1-100">
          <mxGeometry y="118" width="180" height="8" as="geometry" />
        </mxCell>
        <mxCell id="k4_Jj9tKU9DFfMRUuF-1-106" value="+&amp;nbsp;" style="text;strokeColor=none;fillColor=none;align=left;verticalAlign=top;spacingLeft=4;spacingRight=4;overflow=hidden;rotatable=0;points=[[0,0.5],[1,0.5]];portConstraint=eastwest;whiteSpace=wrap;html=1;" vertex="1" parent="k4_Jj9tKU9DFfMRUuF-1-100">
          <mxGeometry y="126" width="180" height="26" as="geometry" />
        </mxCell>
        <mxCell id="k4_Jj9tKU9DFfMRUuF-1-107" value="Diagnostico" style="swimlane;fontStyle=1;align=center;verticalAlign=top;childLayout=stackLayout;horizontal=1;startSize=26;horizontalStack=0;resizeParent=1;resizeParentMax=0;resizeLast=0;collapsible=1;marginBottom=0;whiteSpace=wrap;html=1;" vertex="1" parent="1">
          <mxGeometry x="1060" y="1590" width="160" height="112" as="geometry" />
        </mxCell>
        <mxCell id="k4_Jj9tKU9DFfMRUuF-1-108" value="- matriculaMedico: String" style="text;strokeColor=none;fillColor=none;align=left;verticalAlign=top;spacingLeft=4;spacingRight=4;overflow=hidden;rotatable=0;points=[[0,0.5],[1,0.5]];portConstraint=eastwest;whiteSpace=wrap;html=1;" vertex="1" parent="k4_Jj9tKU9DFfMRUuF-1-107">
          <mxGeometry y="26" width="160" height="26" as="geometry" />
        </mxCell>
        <mxCell id="k4_Jj9tKU9DFfMRUuF-1-109" value="- historiaClinica: double" style="text;strokeColor=none;fillColor=none;align=left;verticalAlign=top;spacingLeft=4;spacingRight=4;overflow=hidden;rotatable=0;points=[[0,0.5],[1,0.5]];portConstraint=eastwest;whiteSpace=wrap;html=1;" vertex="1" parent="k4_Jj9tKU9DFfMRUuF-1-107">
          <mxGeometry y="52" width="160" height="26" as="geometry" />
        </mxCell>
        <mxCell id="k4_Jj9tKU9DFfMRUuF-1-110" value="" style="line;strokeWidth=1;fillColor=none;align=left;verticalAlign=middle;spacingTop=-1;spacingLeft=3;spacingRight=3;rotatable=0;labelPosition=right;points=[];portConstraint=eastwest;strokeColor=inherit;" vertex="1" parent="k4_Jj9tKU9DFfMRUuF-1-107">
          <mxGeometry y="78" width="160" height="8" as="geometry" />
        </mxCell>
        <mxCell id="k4_Jj9tKU9DFfMRUuF-1-111" value="+" style="text;strokeColor=none;fillColor=none;align=left;verticalAlign=top;spacingLeft=4;spacingRight=4;overflow=hidden;rotatable=0;points=[[0,0.5],[1,0.5]];portConstraint=eastwest;whiteSpace=wrap;html=1;" vertex="1" parent="k4_Jj9tKU9DFfMRUuF-1-107">
          <mxGeometry y="86" width="160" height="26" as="geometry" />
        </mxCell>
        <mxCell id="k4_Jj9tKU9DFfMRUuF-1-112" value="Especialidad" style="swimlane;fontStyle=1;align=center;verticalAlign=top;childLayout=stackLayout;horizontal=1;startSize=26;horizontalStack=0;resizeParent=1;resizeParentMax=0;resizeLast=0;collapsible=1;marginBottom=0;whiteSpace=wrap;html=1;" vertex="1" parent="1">
          <mxGeometry x="1270" y="1380" width="190" height="110" as="geometry" />
        </mxCell>
        <mxCell id="k4_Jj9tKU9DFfMRUuF-1-113" value="- nombreEspecialidad: String" style="text;strokeColor=none;fillColor=none;align=left;verticalAlign=top;spacingLeft=4;spacingRight=4;overflow=hidden;rotatable=0;points=[[0,0.5],[1,0.5]];portConstraint=eastwest;whiteSpace=wrap;html=1;" vertex="1" parent="k4_Jj9tKU9DFfMRUuF-1-112">
          <mxGeometry y="26" width="190" height="26" as="geometry" />
        </mxCell>
        <mxCell id="k4_Jj9tKU9DFfMRUuF-1-114" value="" style="line;strokeWidth=1;fillColor=none;align=left;verticalAlign=middle;spacingTop=-1;spacingLeft=3;spacingRight=3;rotatable=0;labelPosition=right;points=[];portConstraint=eastwest;strokeColor=inherit;" vertex="1" parent="k4_Jj9tKU9DFfMRUuF-1-112">
          <mxGeometry y="52" width="190" height="8" as="geometry" />
        </mxCell>
        <mxCell id="k4_Jj9tKU9DFfMRUuF-1-115" value="+ getNombreEspecialidad()&amp;nbsp;" style="text;strokeColor=none;fillColor=none;align=left;verticalAlign=top;spacingLeft=4;spacingRight=4;overflow=hidden;rotatable=0;points=[[0,0.5],[1,0.5]];portConstraint=eastwest;whiteSpace=wrap;html=1;" vertex="1" parent="k4_Jj9tKU9DFfMRUuF-1-112">
          <mxGeometry y="60" width="190" height="26" as="geometry" />
        </mxCell>
        <mxCell id="k4_Jj9tKU9DFfMRUuF-1-116" value="+ void setNombreEspecialidad()&amp;nbsp;" style="text;strokeColor=none;fillColor=none;align=left;verticalAlign=top;spacingLeft=4;spacingRight=4;overflow=hidden;rotatable=0;points=[[0,0.5],[1,0.5]];portConstraint=eastwest;whiteSpace=wrap;html=1;" vertex="1" parent="k4_Jj9tKU9DFfMRUuF-1-112">
          <mxGeometry y="86" width="190" height="24" as="geometry" />
        </mxCell>
        <mxCell id="k4_Jj9tKU9DFfMRUuF-1-117" value="Laboratorio" style="swimlane;fontStyle=1;align=center;verticalAlign=top;childLayout=stackLayout;horizontal=1;startSize=26;horizontalStack=0;resizeParent=1;resizeParentMax=0;resizeLast=0;collapsible=1;marginBottom=0;whiteSpace=wrap;html=1;" vertex="1" parent="1">
          <mxGeometry x="1590" y="1050" width="140" height="86" as="geometry" />
        </mxCell>
        <mxCell id="k4_Jj9tKU9DFfMRUuF-1-118" value="- estudio: String" style="text;strokeColor=none;fillColor=none;align=left;verticalAlign=top;spacingLeft=4;spacingRight=4;overflow=hidden;rotatable=0;points=[[0,0.5],[1,0.5]];portConstraint=eastwest;whiteSpace=wrap;html=1;" vertex="1" parent="k4_Jj9tKU9DFfMRUuF-1-117">
          <mxGeometry y="26" width="140" height="26" as="geometry" />
        </mxCell>
        <mxCell id="k4_Jj9tKU9DFfMRUuF-1-119" value="" style="line;strokeWidth=1;fillColor=none;align=left;verticalAlign=middle;spacingTop=-1;spacingLeft=3;spacingRight=3;rotatable=0;labelPosition=right;points=[];portConstraint=eastwest;strokeColor=inherit;" vertex="1" parent="k4_Jj9tKU9DFfMRUuF-1-117">
          <mxGeometry y="52" width="140" height="8" as="geometry" />
        </mxCell>
        <mxCell id="k4_Jj9tKU9DFfMRUuF-1-120" value="+&amp;nbsp;" style="text;strokeColor=none;fillColor=none;align=left;verticalAlign=top;spacingLeft=4;spacingRight=4;overflow=hidden;rotatable=0;points=[[0,0.5],[1,0.5]];portConstraint=eastwest;whiteSpace=wrap;html=1;" vertex="1" parent="k4_Jj9tKU9DFfMRUuF-1-117">
          <mxGeometry y="60" width="140" height="26" as="geometry" />
        </mxCell>
        <mxCell id="k4_Jj9tKU9DFfMRUuF-1-121" value="HistoriaClinica" style="swimlane;fontStyle=1;align=center;verticalAlign=top;childLayout=stackLayout;horizontal=1;startSize=26;horizontalStack=0;resizeParent=1;resizeParentMax=0;resizeLast=0;collapsible=1;marginBottom=0;whiteSpace=wrap;html=1;" vertex="1" parent="1">
          <mxGeometry x="910" y="1210" width="180" height="130" as="geometry" />
        </mxCell>
        <mxCell id="k4_Jj9tKU9DFfMRUuF-1-122" value="- numHistoriaClinica: double" style="text;strokeColor=none;fillColor=none;align=left;verticalAlign=top;spacingLeft=4;spacingRight=4;overflow=hidden;rotatable=0;points=[[0,0.5],[1,0.5]];portConstraint=eastwest;whiteSpace=wrap;html=1;" vertex="1" parent="k4_Jj9tKU9DFfMRUuF-1-121">
          <mxGeometry y="26" width="180" height="34" as="geometry" />
        </mxCell>
        <mxCell id="k4_Jj9tKU9DFfMRUuF-1-123" value="" style="line;strokeWidth=1;fillColor=none;align=left;verticalAlign=middle;spacingTop=-1;spacingLeft=3;spacingRight=3;rotatable=0;labelPosition=right;points=[];portConstraint=eastwest;strokeColor=inherit;" vertex="1" parent="k4_Jj9tKU9DFfMRUuF-1-121">
          <mxGeometry y="60" width="180" height="8" as="geometry" />
        </mxCell>
        <mxCell id="k4_Jj9tKU9DFfMRUuF-1-124" value="+ getNumHistoriaClinica()&amp;nbsp;" style="text;strokeColor=none;fillColor=none;align=left;verticalAlign=top;spacingLeft=4;spacingRight=4;overflow=hidden;rotatable=0;points=[[0,0.5],[1,0.5]];portConstraint=eastwest;whiteSpace=wrap;html=1;" vertex="1" parent="k4_Jj9tKU9DFfMRUuF-1-121">
          <mxGeometry y="68" width="180" height="26" as="geometry" />
        </mxCell>
        <mxCell id="k4_Jj9tKU9DFfMRUuF-1-125" value="+ void setNumHistoriaClinica()&amp;nbsp;" style="text;strokeColor=none;fillColor=none;align=left;verticalAlign=top;spacingLeft=4;spacingRight=4;overflow=hidden;rotatable=0;points=[[0,0.5],[1,0.5]];portConstraint=eastwest;whiteSpace=wrap;html=1;" vertex="1" parent="k4_Jj9tKU9DFfMRUuF-1-121">
          <mxGeometry y="94" width="180" height="36" as="geometry" />
        </mxCell>
        <mxCell id="k4_Jj9tKU9DFfMRUuF-1-126" value="MetodoPago" style="swimlane;fontStyle=1;align=center;verticalAlign=top;childLayout=stackLayout;horizontal=1;startSize=26;horizontalStack=0;resizeParent=1;resizeParentMax=0;resizeLast=0;collapsible=1;marginBottom=0;whiteSpace=wrap;html=1;" vertex="1" parent="1">
          <mxGeometry x="840" y="1409" width="160" height="86" as="geometry" />
        </mxCell>
        <mxCell id="k4_Jj9tKU9DFfMRUuF-1-127" value="-" style="text;strokeColor=none;fillColor=none;align=left;verticalAlign=top;spacingLeft=4;spacingRight=4;overflow=hidden;rotatable=0;points=[[0,0.5],[1,0.5]];portConstraint=eastwest;whiteSpace=wrap;html=1;" vertex="1" parent="k4_Jj9tKU9DFfMRUuF-1-126">
          <mxGeometry y="26" width="160" height="26" as="geometry" />
        </mxCell>
        <mxCell id="k4_Jj9tKU9DFfMRUuF-1-128" value="" style="line;strokeWidth=1;fillColor=none;align=left;verticalAlign=middle;spacingTop=-1;spacingLeft=3;spacingRight=3;rotatable=0;labelPosition=right;points=[];portConstraint=eastwest;strokeColor=inherit;" vertex="1" parent="k4_Jj9tKU9DFfMRUuF-1-126">
          <mxGeometry y="52" width="160" height="8" as="geometry" />
        </mxCell>
        <mxCell id="k4_Jj9tKU9DFfMRUuF-1-129" value="+" style="text;strokeColor=none;fillColor=none;align=left;verticalAlign=top;spacingLeft=4;spacingRight=4;overflow=hidden;rotatable=0;points=[[0,0.5],[1,0.5]];portConstraint=eastwest;whiteSpace=wrap;html=1;" vertex="1" parent="k4_Jj9tKU9DFfMRUuF-1-126">
          <mxGeometry y="60" width="160" height="26" as="geometry" />
        </mxCell>
        <mxCell id="k4_Jj9tKU9DFfMRUuF-1-130" value="TarjetaCredito" style="swimlane;fontStyle=1;align=center;verticalAlign=top;childLayout=stackLayout;horizontal=1;startSize=26;horizontalStack=0;resizeParent=1;resizeParentMax=0;resizeLast=0;collapsible=1;marginBottom=0;whiteSpace=wrap;html=1;" vertex="1" parent="1">
          <mxGeometry x="840" y="1603" width="160" height="86" as="geometry" />
        </mxCell>
        <mxCell id="k4_Jj9tKU9DFfMRUuF-1-131" value="- numTarjeta: double" style="text;strokeColor=none;fillColor=none;align=left;verticalAlign=top;spacingLeft=4;spacingRight=4;overflow=hidden;rotatable=0;points=[[0,0.5],[1,0.5]];portConstraint=eastwest;whiteSpace=wrap;html=1;" vertex="1" parent="k4_Jj9tKU9DFfMRUuF-1-130">
          <mxGeometry y="26" width="160" height="26" as="geometry" />
        </mxCell>
        <mxCell id="k4_Jj9tKU9DFfMRUuF-1-132" value="" style="line;strokeWidth=1;fillColor=none;align=left;verticalAlign=middle;spacingTop=-1;spacingLeft=3;spacingRight=3;rotatable=0;labelPosition=right;points=[];portConstraint=eastwest;strokeColor=inherit;" vertex="1" parent="k4_Jj9tKU9DFfMRUuF-1-130">
          <mxGeometry y="52" width="160" height="8" as="geometry" />
        </mxCell>
        <mxCell id="k4_Jj9tKU9DFfMRUuF-1-133" value="+&amp;nbsp;" style="text;strokeColor=none;fillColor=none;align=left;verticalAlign=top;spacingLeft=4;spacingRight=4;overflow=hidden;rotatable=0;points=[[0,0.5],[1,0.5]];portConstraint=eastwest;whiteSpace=wrap;html=1;" vertex="1" parent="k4_Jj9tKU9DFfMRUuF-1-130">
          <mxGeometry y="60" width="160" height="26" as="geometry" />
        </mxCell>
        <mxCell id="k4_Jj9tKU9DFfMRUuF-1-134" value="Tratamiento" style="swimlane;fontStyle=1;align=center;verticalAlign=top;childLayout=stackLayout;horizontal=1;startSize=26;horizontalStack=0;resizeParent=1;resizeParentMax=0;resizeLast=0;collapsible=1;marginBottom=0;whiteSpace=wrap;html=1;" vertex="1" parent="1">
          <mxGeometry x="1220" y="1810" width="160" height="86" as="geometry" />
        </mxCell>
        <mxCell id="k4_Jj9tKU9DFfMRUuF-1-135" value="-&amp;nbsp;" style="text;strokeColor=none;fillColor=none;align=left;verticalAlign=top;spacingLeft=4;spacingRight=4;overflow=hidden;rotatable=0;points=[[0,0.5],[1,0.5]];portConstraint=eastwest;whiteSpace=wrap;html=1;" vertex="1" parent="k4_Jj9tKU9DFfMRUuF-1-134">
          <mxGeometry y="26" width="160" height="26" as="geometry" />
        </mxCell>
        <mxCell id="k4_Jj9tKU9DFfMRUuF-1-136" value="" style="line;strokeWidth=1;fillColor=none;align=left;verticalAlign=middle;spacingTop=-1;spacingLeft=3;spacingRight=3;rotatable=0;labelPosition=right;points=[];portConstraint=eastwest;strokeColor=inherit;" vertex="1" parent="k4_Jj9tKU9DFfMRUuF-1-134">
          <mxGeometry y="52" width="160" height="8" as="geometry" />
        </mxCell>
        <mxCell id="k4_Jj9tKU9DFfMRUuF-1-137" value="+" style="text;strokeColor=none;fillColor=none;align=left;verticalAlign=top;spacingLeft=4;spacingRight=4;overflow=hidden;rotatable=0;points=[[0,0.5],[1,0.5]];portConstraint=eastwest;whiteSpace=wrap;html=1;" vertex="1" parent="k4_Jj9tKU9DFfMRUuF-1-134">
          <mxGeometry y="60" width="160" height="26" as="geometry" />
        </mxCell>
        <mxCell id="k4_Jj9tKU9DFfMRUuF-1-138" value="Estudio" style="swimlane;fontStyle=1;align=center;verticalAlign=top;childLayout=stackLayout;horizontal=1;startSize=26;horizontalStack=0;resizeParent=1;resizeParentMax=0;resizeLast=0;collapsible=1;marginBottom=0;whiteSpace=wrap;html=1;" vertex="1" parent="1">
          <mxGeometry x="1000" y="1810" width="160" height="86" as="geometry" />
        </mxCell>
        <mxCell id="k4_Jj9tKU9DFfMRUuF-1-139" value="-&amp;nbsp;" style="text;strokeColor=none;fillColor=none;align=left;verticalAlign=top;spacingLeft=4;spacingRight=4;overflow=hidden;rotatable=0;points=[[0,0.5],[1,0.5]];portConstraint=eastwest;whiteSpace=wrap;html=1;" vertex="1" parent="k4_Jj9tKU9DFfMRUuF-1-138">
          <mxGeometry y="26" width="160" height="26" as="geometry" />
        </mxCell>
        <mxCell id="k4_Jj9tKU9DFfMRUuF-1-140" value="" style="line;strokeWidth=1;fillColor=none;align=left;verticalAlign=middle;spacingTop=-1;spacingLeft=3;spacingRight=3;rotatable=0;labelPosition=right;points=[];portConstraint=eastwest;strokeColor=inherit;" vertex="1" parent="k4_Jj9tKU9DFfMRUuF-1-138">
          <mxGeometry y="52" width="160" height="8" as="geometry" />
        </mxCell>
        <mxCell id="k4_Jj9tKU9DFfMRUuF-1-141" value="+" style="text;strokeColor=none;fillColor=none;align=left;verticalAlign=top;spacingLeft=4;spacingRight=4;overflow=hidden;rotatable=0;points=[[0,0.5],[1,0.5]];portConstraint=eastwest;whiteSpace=wrap;html=1;" vertex="1" parent="k4_Jj9tKU9DFfMRUuF-1-138">
          <mxGeometry y="60" width="160" height="26" as="geometry" />
        </mxCell>
        <mxCell id="k4_Jj9tKU9DFfMRUuF-1-142" value="AdmisiÃ³n" style="swimlane;fontStyle=1;align=center;verticalAlign=top;childLayout=stackLayout;horizontal=1;startSize=40;horizontalStack=0;resizeParent=1;resizeParentMax=0;resizeLast=0;collapsible=1;marginBottom=0;whiteSpace=wrap;html=1;" vertex="1" parent="1">
          <mxGeometry x="490" y="1796" width="160" height="100" as="geometry" />
        </mxCell>
        <mxCell id="k4_Jj9tKU9DFfMRUuF-1-143" value="- Asistencia: bool" style="text;strokeColor=none;fillColor=none;align=left;verticalAlign=top;spacingLeft=4;spacingRight=4;overflow=hidden;rotatable=0;points=[[0,0.5],[1,0.5]];portConstraint=eastwest;whiteSpace=wrap;html=1;" vertex="1" parent="k4_Jj9tKU9DFfMRUuF-1-142">
          <mxGeometry y="40" width="160" height="26" as="geometry" />
        </mxCell>
        <mxCell id="k4_Jj9tKU9DFfMRUuF-1-144" value="" style="line;strokeWidth=1;fillColor=none;align=left;verticalAlign=middle;spacingTop=-1;spacingLeft=3;spacingRight=3;rotatable=0;labelPosition=right;points=[];portConstraint=eastwest;strokeColor=inherit;" vertex="1" parent="k4_Jj9tKU9DFfMRUuF-1-142">
          <mxGeometry y="66" width="160" height="8" as="geometry" />
        </mxCell>
        <mxCell id="k4_Jj9tKU9DFfMRUuF-1-145" value="+" style="text;strokeColor=none;fillColor=none;align=left;verticalAlign=top;spacingLeft=4;spacingRight=4;overflow=hidden;rotatable=0;points=[[0,0.5],[1,0.5]];portConstraint=eastwest;whiteSpace=wrap;html=1;" vertex="1" parent="k4_Jj9tKU9DFfMRUuF-1-142">
          <mxGeometry y="74" width="160" height="26" as="geometry" />
        </mxCell>
        <mxCell id="k4_Jj9tKU9DFfMRUuF-1-146" value="" style="edgeStyle=none;orthogonalLoop=1;jettySize=auto;html=1;rounded=0;exitX=0.47;exitY=-0.004;exitDx=0;exitDy=0;exitPerimeter=0;endArrow=none;endFill=0;strokeWidth=2;" edge="1" parent="1" source="k4_Jj9tKU9DFfMRUuF-1-1">
          <mxGeometry width="100" relative="1" as="geometry">
            <mxPoint x="920" y="460" as="sourcePoint" />
            <mxPoint x="974" y="500" as="targetPoint" />
            <Array as="points" />
          </mxGeometry>
        </mxCell>
        <mxCell id="k4_Jj9tKU9DFfMRUuF-1-147" value="" style="edgeStyle=none;orthogonalLoop=1;jettySize=auto;html=1;rounded=0;exitX=0.5;exitY=0;exitDx=0;exitDy=0;entryX=0.85;entryY=1.103;entryDx=0;entryDy=0;entryPerimeter=0;strokeWidth=2;endArrow=none;endFill=0;" edge="1" parent="1" source="k4_Jj9tKU9DFfMRUuF-1-112" target="k4_Jj9tKU9DFfMRUuF-1-29">
          <mxGeometry width="100" relative="1" as="geometry">
            <mxPoint x="1280" y="1300" as="sourcePoint" />
            <mxPoint x="1200" y="1280" as="targetPoint" />
            <Array as="points" />
          </mxGeometry>
        </mxCell>
        <mxCell id="k4_Jj9tKU9DFfMRUuF-1-148" value="" style="edgeStyle=none;orthogonalLoop=1;jettySize=auto;html=1;rounded=0;exitX=0.5;exitY=0;exitDx=0;exitDy=0;entryX=0.329;entryY=1.051;entryDx=0;entryDy=0;entryPerimeter=0;strokeWidth=2;endArrow=none;endFill=0;" edge="1" parent="1" source="k4_Jj9tKU9DFfMRUuF-1-100" target="k4_Jj9tKU9DFfMRUuF-1-29">
          <mxGeometry width="100" relative="1" as="geometry">
            <mxPoint x="1040" y="1350" as="sourcePoint" />
            <mxPoint x="1140" y="1350" as="targetPoint" />
            <Array as="points" />
          </mxGeometry>
        </mxCell>
        <mxCell id="k4_Jj9tKU9DFfMRUuF-1-149" value="" style="edgeStyle=none;orthogonalLoop=1;jettySize=auto;html=1;rounded=0;exitX=0.563;exitY=-0.044;exitDx=0;exitDy=0;exitPerimeter=0;endArrow=block;endFill=0;endSize=12;strokeWidth=2;" edge="1" parent="1" source="k4_Jj9tKU9DFfMRUuF-1-16">
          <mxGeometry width="100" relative="1" as="geometry">
            <mxPoint x="710" y="1020" as="sourcePoint" />
            <mxPoint x="970" y="950" as="targetPoint" />
            <Array as="points" />
          </mxGeometry>
        </mxCell>
        <mxCell id="k4_Jj9tKU9DFfMRUuF-1-150" value="" style="endArrow=none;html=1;edgeStyle=orthogonalEdgeStyle;rounded=0;strokeWidth=2;" edge="1" parent="1">
          <mxGeometry relative="1" as="geometry">
            <mxPoint x="970" y="1000" as="sourcePoint" />
            <mxPoint x="1180" y="1050" as="targetPoint" />
            <Array as="points">
              <mxPoint x="1180" y="1001" />
              <mxPoint x="1180" y="1053" />
            </Array>
          </mxGeometry>
        </mxCell>
        <mxCell id="k4_Jj9tKU9DFfMRUuF-1-151" value="" style="endArrow=none;html=1;edgeStyle=orthogonalEdgeStyle;rounded=0;strokeWidth=2;" edge="1" parent="1">
          <mxGeometry relative="1" as="geometry">
            <mxPoint x="970" y="1000" as="sourcePoint" />
            <mxPoint x="740" y="1060" as="targetPoint" />
          </mxGeometry>
        </mxCell>
        <mxCell id="k4_Jj9tKU9DFfMRUuF-1-152" value="" style="edgeStyle=none;orthogonalLoop=1;jettySize=auto;html=1;rounded=0;exitX=0.5;exitY=0;exitDx=0;exitDy=0;strokeWidth=2;endArrow=none;endFill=0;" edge="1" parent="1" source="k4_Jj9tKU9DFfMRUuF-1-130" target="k4_Jj9tKU9DFfMRUuF-1-129">
          <mxGeometry width="100" relative="1" as="geometry">
            <mxPoint x="820" y="1500" as="sourcePoint" />
            <mxPoint x="920" y="1500" as="targetPoint" />
            <Array as="points" />
          </mxGeometry>
        </mxCell>
        <mxCell id="k4_Jj9tKU9DFfMRUuF-1-153" value="" style="edgeStyle=none;orthogonalLoop=1;jettySize=auto;html=1;rounded=0;entryX=0;entryY=0.25;entryDx=0;entryDy=0;exitX=0.5;exitY=0;exitDx=0;exitDy=0;strokeWidth=2;endArrow=none;endFill=0;" edge="1" parent="1" source="k4_Jj9tKU9DFfMRUuF-1-64" target="k4_Jj9tKU9DFfMRUuF-1-30">
          <mxGeometry width="100" relative="1" as="geometry">
            <mxPoint x="510" y="1140" as="sourcePoint" />
            <mxPoint x="560" y="1060" as="targetPoint" />
            <Array as="points">
              <mxPoint x="570" y="1090" />
            </Array>
          </mxGeometry>
        </mxCell>
        <mxCell id="k4_Jj9tKU9DFfMRUuF-1-154" value="" style="edgeStyle=none;orthogonalLoop=1;jettySize=auto;html=1;rounded=0;entryX=-0.025;entryY=0.102;entryDx=0;entryDy=0;entryPerimeter=0;exitX=1;exitY=0;exitDx=0;exitDy=0;endArrow=diamondThin;endFill=1;strokeWidth=2;endSize=15;" edge="1" parent="1" source="k4_Jj9tKU9DFfMRUuF-1-64" target="k4_Jj9tKU9DFfMRUuF-1-19">
          <mxGeometry width="100" relative="1" as="geometry">
            <mxPoint x="580" y="1160" as="sourcePoint" />
            <mxPoint x="840" y="1160" as="targetPoint" />
            <Array as="points">
              <mxPoint x="810" y="1190" />
            </Array>
          </mxGeometry>
        </mxCell>
        <mxCell id="k4_Jj9tKU9DFfMRUuF-1-155" value="" style="edgeStyle=none;orthogonalLoop=1;jettySize=auto;html=1;rounded=0;exitX=0.313;exitY=1.077;exitDx=0;exitDy=0;exitPerimeter=0;entryX=0.679;entryY=0.008;entryDx=0;entryDy=0;entryPerimeter=0;strokeWidth=2;endArrow=none;endFill=0;" edge="1" parent="1" source="k4_Jj9tKU9DFfMRUuF-1-111" target="k4_Jj9tKU9DFfMRUuF-1-138">
          <mxGeometry width="100" relative="1" as="geometry">
            <mxPoint x="1100" y="1730" as="sourcePoint" />
            <mxPoint x="1200" y="1730" as="targetPoint" />
            <Array as="points" />
          </mxGeometry>
        </mxCell>
        <mxCell id="k4_Jj9tKU9DFfMRUuF-1-156" value="" style="edgeStyle=none;orthogonalLoop=1;jettySize=auto;html=1;rounded=0;exitX=0.879;exitY=1.154;exitDx=0;exitDy=0;exitPerimeter=0;entryX=0.25;entryY=0;entryDx=0;entryDy=0;strokeWidth=2;endArrow=none;endFill=0;" edge="1" parent="1" source="k4_Jj9tKU9DFfMRUuF-1-111" target="k4_Jj9tKU9DFfMRUuF-1-134">
          <mxGeometry width="100" relative="1" as="geometry">
            <mxPoint x="1090" y="1720" as="sourcePoint" />
            <mxPoint x="1190" y="1720" as="targetPoint" />
            <Array as="points" />
          </mxGeometry>
        </mxCell>
        <mxCell id="k4_Jj9tKU9DFfMRUuF-1-157" value="" style="edgeStyle=none;orthogonalLoop=1;jettySize=auto;html=1;rounded=0;exitX=0.5;exitY=0;exitDx=0;exitDy=0;entryX=1.021;entryY=0.769;entryDx=0;entryDy=0;entryPerimeter=0;strokeWidth=2;endArrow=none;endFill=0;" edge="1" parent="1" source="k4_Jj9tKU9DFfMRUuF-1-85" target="k4_Jj9tKU9DFfMRUuF-1-84">
          <mxGeometry width="100" relative="1" as="geometry">
            <mxPoint x="530" y="1780" as="sourcePoint" />
            <mxPoint x="630" y="1780" as="targetPoint" />
            <Array as="points" />
          </mxGeometry>
        </mxCell>
        <mxCell id="k4_Jj9tKU9DFfMRUuF-1-158" value="" style="edgeStyle=none;orthogonalLoop=1;jettySize=auto;html=1;rounded=0;exitX=0.5;exitY=0;exitDx=0;exitDy=0;entryX=0.5;entryY=1.051;entryDx=0;entryDy=0;entryPerimeter=0;strokeWidth=2;endArrow=none;endFill=0;" edge="1" parent="1" source="k4_Jj9tKU9DFfMRUuF-1-142" target="k4_Jj9tKU9DFfMRUuF-1-84">
          <mxGeometry width="100" relative="1" as="geometry">
            <mxPoint x="540" y="1780" as="sourcePoint" />
            <mxPoint x="640" y="1780" as="targetPoint" />
            <Array as="points" />
          </mxGeometry>
        </mxCell>
        <mxCell id="k4_Jj9tKU9DFfMRUuF-1-159" value="" style="edgeStyle=none;orthogonalLoop=1;jettySize=auto;html=1;rounded=0;exitX=-0.025;exitY=0.327;exitDx=0;exitDy=0;exitPerimeter=0;entryX=-0.029;entryY=0.093;entryDx=0;entryDy=0;entryPerimeter=0;strokeWidth=2;endArrow=none;endFill=0;" edge="1" parent="1" source="k4_Jj9tKU9DFfMRUuF-1-142" target="k4_Jj9tKU9DFfMRUuF-1-30">
          <mxGeometry width="100" relative="1" as="geometry">
            <mxPoint x="860" y="1640" as="sourcePoint" />
            <mxPoint x="560" y="1050" as="targetPoint" />
            <Array as="points">
              <mxPoint x="450" y="1830" />
              <mxPoint x="450" y="1070" />
            </Array>
          </mxGeometry>
        </mxCell>
        <mxCell id="k4_Jj9tKU9DFfMRUuF-1-160" value="" style="endArrow=diamondThin;endFill=1;endSize=24;html=1;rounded=0;exitX=0;exitY=0;exitDx=0;exitDy=0;entryX=1.013;entryY=0.035;entryDx=0;entryDy=0;entryPerimeter=0;strokeWidth=2;" edge="1" parent="1" source="k4_Jj9tKU9DFfMRUuF-1-44" target="k4_Jj9tKU9DFfMRUuF-1-89">
          <mxGeometry width="160" relative="1" as="geometry">
            <mxPoint x="910" y="230" as="sourcePoint" />
            <mxPoint x="1070" y="230" as="targetPoint" />
          </mxGeometry>
        </mxCell>
        <mxCell id="k4_Jj9tKU9DFfMRUuF-1-161" value="" style="edgeStyle=none;orthogonalLoop=1;jettySize=auto;html=1;rounded=0;entryX=0.438;entryY=-0.012;entryDx=0;entryDy=0;entryPerimeter=0;strokeWidth=2;endArrow=none;endFill=0;" edge="1" parent="1" target="k4_Jj9tKU9DFfMRUuF-1-107">
          <mxGeometry width="100" relative="1" as="geometry">
            <mxPoint x="1130" y="1520" as="sourcePoint" />
            <mxPoint x="1340" y="1550" as="targetPoint" />
            <Array as="points" />
          </mxGeometry>
        </mxCell>
        <mxCell id="k4_Jj9tKU9DFfMRUuF-1-162" value="" style="edgeStyle=none;orthogonalLoop=1;jettySize=auto;html=1;rounded=0;exitX=0.356;exitY=0.012;exitDx=0;exitDy=0;exitPerimeter=0;entryX=0.65;entryY=1.064;entryDx=0;entryDy=0;entryPerimeter=0;strokeWidth=2;endArrow=none;endFill=0;" edge="1" parent="1" source="k4_Jj9tKU9DFfMRUuF-1-39" target="k4_Jj9tKU9DFfMRUuF-1-38">
          <mxGeometry width="100" relative="1" as="geometry">
            <mxPoint x="1390" y="860" as="sourcePoint" />
            <mxPoint x="1490" y="860" as="targetPoint" />
            <Array as="points" />
          </mxGeometry>
        </mxCell>
        <mxCell id="k4_Jj9tKU9DFfMRUuF-1-164" value="" style="endArrow=diamondThin;endFill=1;endSize=24;html=1;rounded=0;entryX=0.773;entryY=1.103;entryDx=0;entryDy=0;entryPerimeter=0;strokeWidth=2;exitX=0.112;exitY=0.01;exitDx=0;exitDy=0;exitPerimeter=0;" edge="1" parent="1" source="k4_Jj9tKU9DFfMRUuF-1-34" target="k4_Jj9tKU9DFfMRUuF-1-49">
          <mxGeometry width="160" relative="1" as="geometry">
            <mxPoint x="1371" y="670" as="sourcePoint" />
            <mxPoint x="1250" y="520" as="targetPoint" />
          </mxGeometry>
        </mxCell>
        <mxCell id="k4_Jj9tKU9DFfMRUuF-1-165" value="" style="endArrow=none;html=1;edgeStyle=orthogonalEdgeStyle;rounded=0;exitX=0.381;exitY=0;exitDx=0;exitDy=0;exitPerimeter=0;strokeWidth=2;endFill=0;entryX=0.137;entryY=1.101;entryDx=0;entryDy=0;entryPerimeter=0;" edge="1" parent="1" source="k4_Jj9tKU9DFfMRUuF-1-126" target="k4_Jj9tKU9DFfMRUuF-1-19">
          <mxGeometry relative="1" as="geometry">
            <mxPoint x="900" y="1400" as="sourcePoint" />
            <mxPoint x="900" y="1141" as="targetPoint" />
            <Array as="points">
              <mxPoint x="901" y="1400" />
              <mxPoint x="900" y="1151" />
              <mxPoint x="901" y="1141" />
            </Array>
          </mxGeometry>
        </mxCell>
        <mxCell id="k4_Jj9tKU9DFfMRUuF-1-166" value="" style="endArrow=none;html=1;edgeStyle=orthogonalEdgeStyle;rounded=0;entryX=0.333;entryY=0.006;entryDx=0;entryDy=0;entryPerimeter=0;strokeWidth=2;exitX=0.549;exitY=1.053;exitDx=0;exitDy=0;exitPerimeter=0;endFill=0;" edge="1" parent="1" source="k4_Jj9tKU9DFfMRUuF-1-19" target="k4_Jj9tKU9DFfMRUuF-1-121">
          <mxGeometry relative="1" as="geometry">
            <mxPoint x="970" y="1150" as="sourcePoint" />
            <mxPoint x="1050" y="1190" as="targetPoint" />
            <Array as="points">
              <mxPoint x="969" y="1141" />
              <mxPoint x="969" y="1190" />
            </Array>
          </mxGeometry>
        </mxCell>
        <mxCell id="k4_Jj9tKU9DFfMRUuF-1-167" value="" style="endArrow=none;html=1;edgeStyle=orthogonalEdgeStyle;rounded=0;entryX=0.679;entryY=0;entryDx=0;entryDy=0;entryPerimeter=0;exitX=0.058;exitY=1.134;exitDx=0;exitDy=0;exitPerimeter=0;strokeWidth=2;endFill=0;" edge="1" parent="1" source="k4_Jj9tKU9DFfMRUuF-1-19" target="k4_Jj9tKU9DFfMRUuF-1-50">
          <mxGeometry relative="1" as="geometry">
            <mxPoint x="890" y="1150" as="sourcePoint" />
            <mxPoint x="860" y="1250" as="targetPoint" />
            <Array as="points">
              <mxPoint x="889" y="1230" />
              <mxPoint x="779" y="1230" />
            </Array>
          </mxGeometry>
        </mxCell>
        <mxCell id="k4_Jj9tKU9DFfMRUuF-1-168" value="" style="endArrow=none;html=1;edgeStyle=orthogonalEdgeStyle;rounded=0;exitX=1;exitY=0.167;exitDx=0;exitDy=0;exitPerimeter=0;entryX=0.293;entryY=-0.018;entryDx=0;entryDy=0;entryPerimeter=0;strokeWidth=2;endFill=0;" edge="1" parent="1" source="k4_Jj9tKU9DFfMRUuF-1-121" target="k4_Jj9tKU9DFfMRUuF-1-100">
          <mxGeometry relative="1" as="geometry">
            <mxPoint x="960" y="1360" as="sourcePoint" />
            <mxPoint x="1120" y="1360" as="targetPoint" />
          </mxGeometry>
        </mxCell>
        <mxCell id="k4_Jj9tKU9DFfMRUuF-1-169" value="1" style="text;align=center;fontStyle=1;verticalAlign=middle;spacingLeft=3;spacingRight=3;strokeColor=none;rotatable=0;points=[[0,0.5],[1,0.5]];portConstraint=eastwest;html=1;" vertex="1" parent="1">
          <mxGeometry x="930" y="498" width="50" height="16" as="geometry" />
        </mxCell>
        <mxCell id="k4_Jj9tKU9DFfMRUuF-1-170" value="*" style="text;align=center;fontStyle=1;verticalAlign=middle;spacingLeft=3;spacingRight=3;strokeColor=none;rotatable=0;points=[[0,0.5],[1,0.5]];portConstraint=eastwest;html=1;fontSize=22;" vertex="1" parent="1">
          <mxGeometry x="960" y="574" width="50" height="16" as="geometry" />
        </mxCell>
        <mxCell id="k4_Jj9tKU9DFfMRUuF-1-171" value="1" style="text;align=center;fontStyle=1;verticalAlign=middle;spacingLeft=3;spacingRight=3;strokeColor=none;rotatable=0;points=[[0,0.5],[1,0.5]];portConstraint=eastwest;html=1;" vertex="1" parent="1">
          <mxGeometry x="1230" y="478" width="50" height="16" as="geometry" />
        </mxCell>
        <mxCell id="k4_Jj9tKU9DFfMRUuF-1-172" value="1" style="text;align=center;fontStyle=1;verticalAlign=middle;spacingLeft=3;spacingRight=3;strokeColor=none;rotatable=0;points=[[0,0.5],[1,0.5]];portConstraint=eastwest;html=1;" vertex="1" parent="1">
          <mxGeometry x="1220" y="1034" width="50" height="16" as="geometry" />
        </mxCell>
        <mxCell id="k4_Jj9tKU9DFfMRUuF-1-173" value="1" style="text;align=center;fontStyle=1;verticalAlign=middle;spacingLeft=3;spacingRight=3;strokeColor=none;rotatable=0;points=[[0,0.5],[1,0.5]];portConstraint=eastwest;html=1;" vertex="1" parent="1">
          <mxGeometry x="955" y="1140" width="50" height="16" as="geometry" />
        </mxCell>
        <mxCell id="k4_Jj9tKU9DFfMRUuF-1-174" value="1" style="text;align=center;fontStyle=1;verticalAlign=middle;spacingLeft=3;spacingRight=3;strokeColor=none;rotatable=0;points=[[0,0.5],[1,0.5]];portConstraint=eastwest;html=1;" vertex="1" parent="1">
          <mxGeometry x="930" y="1194" width="50" height="16" as="geometry" />
        </mxCell>
        <mxCell id="k4_Jj9tKU9DFfMRUuF-1-175" value="1" style="text;align=center;fontStyle=1;verticalAlign=middle;spacingLeft=3;spacingRight=3;strokeColor=none;rotatable=0;points=[[0,0.5],[1,0.5]];portConstraint=eastwest;html=1;" vertex="1" parent="1">
          <mxGeometry x="840" y="1097" width="50" height="16" as="geometry" />
        </mxCell>
        <mxCell id="k4_Jj9tKU9DFfMRUuF-1-176" value="n" style="text;align=center;fontStyle=1;verticalAlign=middle;spacingLeft=3;spacingRight=3;strokeColor=none;rotatable=0;points=[[0,0.5],[1,0.5]];portConstraint=eastwest;html=1;" vertex="1" parent="1">
          <mxGeometry x="640" y="1190" width="50" height="16" as="geometry" />
        </mxCell>
        <mxCell id="k4_Jj9tKU9DFfMRUuF-1-177" value="1" style="text;align=center;fontStyle=1;verticalAlign=middle;spacingLeft=3;spacingRight=3;strokeColor=none;rotatable=0;points=[[0,0.5],[1,0.5]];portConstraint=eastwest;html=1;" vertex="1" parent="1">
          <mxGeometry x="1060" y="220" width="50" height="16" as="geometry" />
        </mxCell>
        <mxCell id="k4_Jj9tKU9DFfMRUuF-1-178" value="*" style="text;align=center;fontStyle=1;verticalAlign=middle;spacingLeft=3;spacingRight=3;strokeColor=none;rotatable=0;points=[[0,0.5],[1,0.5]];portConstraint=eastwest;html=1;fontSize=22;" vertex="1" parent="1">
          <mxGeometry x="1220" y="324" width="50" height="16" as="geometry" />
        </mxCell>
        <mxCell id="k4_Jj9tKU9DFfMRUuF-1-179" value="1" style="text;align=center;fontStyle=1;verticalAlign=middle;spacingLeft=3;spacingRight=3;strokeColor=none;rotatable=0;points=[[0,0.5],[1,0.5]];portConstraint=eastwest;html=1;" vertex="1" parent="1">
          <mxGeometry x="1370" y="482" width="50" height="16" as="geometry" />
        </mxCell>
        <mxCell id="k4_Jj9tKU9DFfMRUuF-1-180" value="*" style="text;align=center;fontStyle=1;verticalAlign=middle;spacingLeft=3;spacingRight=3;strokeColor=none;rotatable=0;points=[[0,0.5],[1,0.5]];portConstraint=eastwest;html=1;fontSize=22;" vertex="1" parent="1">
          <mxGeometry x="1350" y="659" width="50" height="16" as="geometry" />
        </mxCell>
        <mxCell id="k4_Jj9tKU9DFfMRUuF-1-182" value="" style="endArrow=none;html=1;rounded=0;entryX=0.5;entryY=0;entryDx=0;entryDy=0;" edge="1" parent="1" target="k4_Jj9tKU9DFfMRUuF-1-117">
          <mxGeometry relative="1" as="geometry">
            <mxPoint x="1460" y="790" as="sourcePoint" />
            <mxPoint x="1520" y="940" as="targetPoint" />
          </mxGeometry>
        </mxCell>
        <mxCell id="k4_Jj9tKU9DFfMRUuF-1-183" value="" style="endArrow=none;html=1;rounded=0;exitX=0.842;exitY=-0.008;exitDx=0;exitDy=0;exitPerimeter=0;entryX=0;entryY=1.115;entryDx=0;entryDy=0;entryPerimeter=0;" edge="1" parent="1" source="k4_Jj9tKU9DFfMRUuF-1-21" target="k4_Jj9tKU9DFfMRUuF-1-38">
          <mxGeometry relative="1" as="geometry">
            <mxPoint x="1270" y="960" as="sourcePoint" />
            <mxPoint x="1430" y="960" as="targetPoint" />
          </mxGeometry>
        </mxCell>
      </root>
    </mxGraphModel>
  </diagram>
</mxfile>
